<svg xmlns="http://www.w3.org/2000/svg" viewBox="0 0 64 64">
  <rect width="64" height="64" rx="10" fill="#faf7ef"/>
  <g fill="none" stroke="#342d27" stroke-width="3.5" stroke-linecap="square">
    <path d="M32 5v6M32 53v6M5 32h6M53 32h6M12.9 12.9l4.2 4.2M46.9 46.9l4.2 4.2M51.1 12.9l-4.2 4.2M17.1 46.9l-4.2 4.2"/>
    <circle cx="32" cy="32" r="21"/>
  </g>
  <path fill="#d85f1f" d="M19 20h22l-2.7 7H32l-6.5 18h-8L24 27h-7.5L19 20Z"/>
  <path fill="#342d27" fill-opacity=".82" d="M44.5 23.5c-2.2-2.4-5.3-3.7-8.8-3.7-8.2 0-14.8 6.2-14.8 14.2 0 6.3 4.6 10.4 11.2 10.4 3.6 0 6.8-1.2 9.5-3.8l-4.2-4.2c-1.3 1.2-2.8 1.8-4.4 1.8-2.6 0-4.3-1.7-4.3-4.5 0-4.2 3.2-7.7 7.2-7.7 1.7 0 3.1.6 4.2 1.7l4.4-4.2Z"/>
</svg>
